<?xml version="1.0" encoding="utf-8"?>
<!-- Generator: Adobe Illustrator 28.0.0, SVG Export Plug-In . SVG Version: 6.00 Build 0)  -->
<svg version="1.1" id="Layer_1" xmlns="http://www.w3.org/2000/svg" xmlns:xlink="http://www.w3.org/1999/xlink" x="0px" y="0px"
	 viewBox="0 0 874.3 295.9" style="enable-background:new 0 0 874.3 295.9;" xml:space="preserve">
<style type="text/css">
	.st0{fill:#00417D;}
	.st1{opacity:0.25;fill:url(#SVGID_1_);}
	.st2{opacity:0.25;fill:url(#SVGID_00000152978929258810965510000014798188696668983716_);}
	.st3{fill:url(#SVGID_00000147936316801887871640000007490633875319744404_);}
	.st4{fill:url(#SVGID_00000033333205561546415390000017915790722865219245_);}
	.st5{fill:#231F20;}
	.st6{fill:#343434;}
	.st7{opacity:0.25;fill:url(#SVGID_00000159441126579561777570000010264000514125431208_);}
	.st8{opacity:0.25;fill:url(#SVGID_00000129201130735658520050000006594411950900723588_);}
	.st9{fill:url(#SVGID_00000168087116157486159980000007577237330932595646_);}
	.st10{fill:url(#SVGID_00000044862178001754078020000012857891031416339128_);}
	.st11{opacity:0.25;fill:url(#SVGID_00000176742125571235899990000009843557727696848772_);}
	.st12{opacity:0.25;fill:url(#SVGID_00000066506899954258899040000016639353475788160703_);}
	.st13{fill:url(#SVGID_00000125583508026011442400000002268284000858963388_);}
	.st14{fill:url(#SVGID_00000096743132772318535420000008438749341761507261_);}
	.st15{opacity:0.25;fill:url(#SVGID_00000126321173518772740720000010619919892049944511_);}
	.st16{opacity:0.25;fill:url(#SVGID_00000000191650557103560990000008968107029880490431_);}
	.st17{fill:url(#SVGID_00000152977384625858122650000011776336807000580762_);}
	.st18{fill:url(#SVGID_00000170998559786114093180000015139445381052435635_);}
	.st19{fill:#FFFFFF;}
	.st20{opacity:0.25;fill:url(#SVGID_00000012447306628787009200000009699141967999425683_);}
	.st21{opacity:0.25;fill:url(#SVGID_00000083791742214971258190000003497127262317344411_);}
	.st22{fill:url(#SVGID_00000137101840433565190410000004182618734879650195_);}
	.st23{fill:url(#SVGID_00000107557049278663881130000010796640336285853068_);}
	.st24{opacity:0.25;fill:url(#SVGID_00000150060820036692262690000014567103593804570780_);}
	.st25{opacity:0.25;fill:url(#SVGID_00000128465876643569216760000007881166597142084272_);}
	.st26{fill:url(#SVGID_00000164481509653531319980000015059462597499926206_);}
	.st27{fill:url(#SVGID_00000008150979318064603490000007887815191843520947_);}
</style>
<g>
	<path class="st0" d="M817.3,74.2v147.1h-26.8V74.2H817.3z"/>
	
		<linearGradient id="SVGID_1_" gradientUnits="userSpaceOnUse" x1="-446.389" y1="2961.8989" x2="-408.8648" y2="2970.562" gradientTransform="matrix(0 1 -1 0 3770.1279 615.3678)">
		<stop  offset="0" style="stop-color:#00102A"/>
		<stop  offset="0.2725" style="stop-color:#00234B;stop-opacity:0.7274"/>
		<stop  offset="0.5578" style="stop-color:#003466;stop-opacity:0.4421"/>
		<stop  offset="0.8097" style="stop-color:#003E77;stop-opacity:0.1901"/>
		<stop  offset="0.9998" style="stop-color:#00417D;stop-opacity:0"/>
	</linearGradient>
	<polygon class="st1" points="790.5,204.4 790.5,171.1 817.3,171.1 817.3,204.5 	"/>
	
		<linearGradient id="SVGID_00000004523102811582542650000004857268938072109201_" gradientUnits="userSpaceOnUse" x1="3069.9526" y1="235.8887" x2="3107.4768" y2="244.5519" gradientTransform="matrix(-7.968471e-05 -0.9999 1 0 563.8977 3215.9734)">
		<stop  offset="0" style="stop-color:#00102A"/>
		<stop  offset="0.2725" style="stop-color:#00234B;stop-opacity:0.7274"/>
		<stop  offset="0.5577" style="stop-color:#003466;stop-opacity:0.4421"/>
		<stop  offset="0.8096" style="stop-color:#003E77;stop-opacity:0.1901"/>
		<stop  offset="0.9997" style="stop-color:#00417D;stop-opacity:0"/>
	</linearGradient>
	<polygon style="opacity:0.25;fill:url(#SVGID_00000004523102811582542650000004857268938072109201_);" points="817.3,110.9 
		817.3,144.2 790.5,144.2 790.5,110.8 	"/>
	
		<linearGradient id="SVGID_00000067209120910531908990000010997355681346041737_" gradientUnits="userSpaceOnUse" x1="591.7933" y1="154.7902" x2="607.8266" y2="158.4918" gradientTransform="matrix(1 0 -5.882414e-06 1 51.7468 0.9961)">
		<stop  offset="0" style="stop-color:#0175BF"/>
		<stop  offset="0.3778" style="stop-color:#0173BD"/>
		<stop  offset="0.5814" style="stop-color:#016DB5"/>
		<stop  offset="0.7435" style="stop-color:#0162A7"/>
		<stop  offset="0.8829" style="stop-color:#005394"/>
		<stop  offset="1" style="stop-color:#00417D"/>
	</linearGradient>
	<polygon style="fill:url(#SVGID_00000067209120910531908990000010997355681346041737_);" points="654.5,171.1 640,171.1 
		648.6,144.2 663.1,144.2 	"/>
	<g>
		<path class="st0" d="M57.8,74.2h26.8v124.6h60.4v22.5H57.8V74.2z"/>
		<path class="st0" d="M257.1,156h-55.4v43.2h62v22h-88.8V74.2h85.5v22h-58.7v38h55.4V156z"/>
		<path class="st0" d="M327,179.6l-12.7,41.7h-27.7l47.1-147.1H368l47.8,147.1H387l-13.3-41.7H327z M369.1,159.3l-11.6-36.2
			c-2.8-8.9-5.2-19-7.4-27.5h-0.4c-2.2,8.5-4.4,18.8-7,27.5l-11.3,36.2H369.1z"/>
		<path class="st0" d="M442,76.1c11.8-2,26.8-3.1,42.8-3.1c27.5,0,46.5,5.7,60,17c14.2,11.6,22.9,29,22.9,54.1
			c0,26.2-8.9,45.8-22.9,58.5c-14.6,13.3-38,20.1-66.6,20.1c-15.7,0-27.5-0.9-36.2-2V76.1z M468.9,200.7c3.7,0.7,9.4,0.7,14.8,0.7
			c34.9,0.2,55.6-19,55.6-56.3c0.2-32.5-18.5-51.1-52.2-51.1c-8.5,0-14.6,0.7-18.3,1.5V200.7z"/>
		<path class="st0" d="M720.9,159.3l-11.6-36.2c-2.8-8.9-5.2-19-7.4-27.5h-0.4c-2.2,8.5-4.4,18.8-7,27.5l-10.9,36.2l0,0l-17.5,62
			h-27.7l47.1-147.1h34.3l47.8,147.1h-28.8L720.9,159.3"/>
	</g>
	
		<linearGradient id="SVGID_00000073719220436532017070000017713368033014600111_" gradientUnits="userSpaceOnUse" x1="628.4267" y1="156.6412" x2="765.5602" y2="156.6412" gradientTransform="matrix(1 0 -5.882414e-06 1 51.7468 0.9961)">
		<stop  offset="0" style="stop-color:#004683"/>
		<stop  offset="5.289867e-02" style="stop-color:#005090"/>
		<stop  offset="0.2052" style="stop-color:#016BB2"/>
		<stop  offset="0.288" style="stop-color:#0175BF"/>
		<stop  offset="0.4864" style="stop-color:#0175BF"/>
		<stop  offset="0.8316" style="stop-color:#5EC7B8"/>
		<stop  offset="1" style="stop-color:#8DF0B5"/>
	</linearGradient>
	<polygon style="fill:url(#SVGID_00000073719220436532017070000017713368033014600111_);" points="817.3,144.2 687.9,144.2 
		680.2,171.1 817.3,171.1 817.3,157.6 	"/>
</g>
</svg>
