<?xml version="1.0" encoding="UTF-8"?>
<svg xmlns="http://www.w3.org/2000/svg" id="Layer_1" viewBox="0 0 805.34 179.57">
  <defs>
    <style>.cls-1{fill:#0c7083;}</style>
  </defs>
  <path class="cls-1" d="M314.69,80.69v-34.77h12.81c2.46,0,4.5.4,6.11,1.21,1.62.81,2.83,1.9,3.63,3.28s1.2,2.92,1.2,4.63c0,2.18-.58,3.85-1.73,5.01-1.15,1.16-2.53,1.94-4.15,2.34v.35c1.17.06,2.3.43,3.41,1.11,1.11.68,2.02,1.64,2.74,2.91.72,1.26,1.09,2.78,1.09,4.55s-.42,3.39-1.25,4.81c-.83,1.42-2.11,2.53-3.85,3.35-1.73.82-3.95,1.22-6.64,1.22h-13.37ZM320.01,60.97h6.98c1.76,0,3.24-.5,4.43-1.49,1.2-1,1.8-2.33,1.8-3.99,0-1.43-.5-2.62-1.51-3.58-1-.96-2.53-1.43-4.59-1.43h-7.12v10.5ZM320.01,76.12h7.52c2.51,0,4.3-.48,5.38-1.44,1.08-.97,1.62-2.17,1.62-3.62,0-1.63-.61-3.04-1.83-4.21s-2.87-1.76-4.96-1.76h-7.73v11.04Z"></path>
  <path class="cls-1" d="M346.14,54.6h5.15v27.77c0,2.66-.72,4.67-2.15,6.03-1.43,1.36-3.5,2.04-6.21,2.04h-1.03v-4.41h.82c1.2,0,2.07-.32,2.6-.95s.81-1.54.81-2.74v-27.75ZM348.72,50.61c-.89,0-1.64-.3-2.28-.89-.63-.59-.94-1.31-.94-2.15s.32-1.58.94-2.17c.63-.59,1.39-.89,2.28-.89s1.65.3,2.29.89c.64.59.96,1.31.96,2.17s-.32,1.56-.96,2.15c-.64.59-1.4.89-2.29.89Z"></path>
  <path class="cls-1" d="M369.93,81.23c-2.57,0-4.78-.55-6.65-1.66-1.87-1.11-3.3-2.66-4.31-4.67-1-2-1.5-4.36-1.5-7.07s.49-5.03,1.48-7.07c.99-2.04,2.38-3.63,4.19-4.77,1.8-1.14,3.92-1.72,6.35-1.72,1.98,0,3.86.44,5.64,1.32,1.78.88,3.23,2.28,4.34,4.2,1.11,1.92,1.67,4.45,1.67,7.6v1.82h-18.51c.09,2.52.81,4.45,2.15,5.78,1.34,1.33,3.07,1.99,5.21,1.99,1.43,0,2.66-.31,3.7-.93,1.03-.62,1.78-1.54,2.23-2.75l4.83,1.14c-.62,2.04-1.88,3.68-3.78,4.92-1.9,1.24-4.24,1.87-7.02,1.87ZM362.64,65.38h13.4c-.19-2.06-.83-3.71-1.93-4.97-1.1-1.26-2.63-1.89-4.61-1.89s-3.67.67-4.86,2.02c-1.19,1.35-1.86,2.96-2,4.84Z"></path>
  <path class="cls-1" d="M387.23,80.69v-26.09h4.97v4.2h.28c.46-1.41,1.3-2.53,2.51-3.35,1.21-.82,2.57-1.22,4.1-1.22.33,0,.71.01,1.13.04.43.03.77.06,1.04.09v4.9c-.19-.05-.55-.11-1.07-.18-.53-.07-1.07-.11-1.61-.11-1.79,0-3.27.55-4.45,1.65-1.18,1.1-1.76,2.5-1.76,4.21v15.84h-5.13Z"></path>
  <path class="cls-1" d="M406.94,80.69v-34.77h5.13v19.7h.47l10.29-11.02h6.16l-10.5,11.25,11.23,14.84h-6.35l-8.8-11.69-2.5,2.5v9.19h-5.13Z"></path>
  <path class="cls-1" d="M439.27,65.25v15.45h-5.13v-26.09h4.9l.02,5.02c.81-1.83,1.9-3.18,3.26-4.05,1.36-.86,2.96-1.3,4.8-1.3,2.66,0,4.81.84,6.43,2.51,1.63,1.67,2.44,4.12,2.44,7.34v16.57h-5.13v-15.94c0-1.88-.49-3.35-1.47-4.41s-2.33-1.59-4.04-1.59-3.19.56-4.34,1.69c-1.15,1.13-1.73,2.73-1.73,4.8Z"></path>
  <path class="cls-1" d="M474.62,81.23c-2.57,0-4.78-.55-6.65-1.66-1.87-1.11-3.3-2.66-4.31-4.67-1-2-1.5-4.36-1.5-7.07s.49-5.03,1.48-7.07c.99-2.04,2.38-3.63,4.19-4.77s3.92-1.72,6.35-1.72c1.98,0,3.86.44,5.64,1.32,1.78.88,3.23,2.28,4.34,4.2,1.11,1.92,1.67,4.45,1.67,7.6v1.82h-18.51c.09,2.52.81,4.45,2.15,5.78,1.34,1.33,3.07,1.99,5.21,1.99,1.43,0,2.66-.31,3.7-.93,1.03-.62,1.78-1.54,2.23-2.75l4.83,1.14c-.62,2.04-1.88,3.68-3.78,4.92-1.9,1.24-4.24,1.87-7.02,1.87ZM467.33,65.38h13.4c-.19-2.06-.83-3.71-1.93-4.97-1.1-1.26-2.63-1.89-4.61-1.89s-3.67.67-4.86,2.02-1.86,2.96-2,4.84Z"></path>
  <path class="cls-1" d="M501.28,81.23c-2.83,0-5.18-.61-7.04-1.83-1.86-1.22-3.02-2.99-3.49-5.31l4.83-1c.7,2.66,2.61,3.99,5.74,3.99,1.66,0,2.98-.35,3.95-1.04s1.46-1.52,1.46-2.49c0-1.65-1.22-2.74-3.66-3.29l-4.39-1c-4.79-1.07-7.19-3.48-7.19-7.21,0-1.56.43-2.92,1.29-4.08.86-1.17,2.06-2.08,3.57-2.72,1.52-.64,3.26-.97,5.24-.97,2.81,0,5.03.6,6.63,1.81,1.6,1.2,2.69,2.77,3.25,4.7l-4.6,1c-.33-.92-.9-1.72-1.7-2.41-.81-.69-1.98-1.04-3.52-1.04-1.42,0-2.6.32-3.55.96s-1.42,1.45-1.42,2.43c0,.87.32,1.57.95,2.11.63.54,1.66.97,3.09,1.3l4.2.93c4.74,1.08,7.12,3.43,7.12,7.05,0,1.59-.45,2.99-1.36,4.21-.91,1.22-2.18,2.18-3.79,2.87-1.62.69-3.48,1.04-5.6,1.04Z"></path>
  <path class="cls-1" d="M546.2,81.16c-3.02,0-5.71-.72-8.06-2.15-2.36-1.43-4.21-3.48-5.57-6.14-1.35-2.66-2.03-5.84-2.03-9.55s.68-6.91,2.04-9.58c1.36-2.67,3.22-4.72,5.58-6.15,2.36-1.43,5.04-2.15,8.04-2.15,2.44,0,4.67.46,6.7,1.39,2.02.93,3.7,2.26,5.04,4.01,1.34,1.75,2.2,3.86,2.59,6.31h-5.34c-.43-2.21-1.49-3.91-3.16-5.09-1.67-1.18-3.6-1.77-5.78-1.77-1.99,0-3.77.5-5.34,1.5-1.57,1-2.81,2.48-3.72,4.41-.91,1.94-1.36,4.31-1.36,7.1s.45,5.19,1.36,7.12c.91,1.93,2.15,3.39,3.72,4.37,1.57.99,3.35,1.48,5.34,1.48,2.18,0,4.1-.59,5.78-1.78s2.73-2.89,3.16-5.1h5.37c-.36,2.3-1.19,4.33-2.49,6.09-1.3,1.76-2.96,3.14-5,4.14-2.03,1-4.32,1.51-6.87,1.51Z"></path>
  <path class="cls-1" d="M578.13,81.23c-2.57,0-4.78-.55-6.65-1.66-1.87-1.11-3.3-2.66-4.31-4.67-1-2-1.5-4.36-1.5-7.07s.49-5.03,1.48-7.07c.99-2.04,2.38-3.63,4.19-4.77,1.8-1.14,3.92-1.72,6.35-1.72,1.98,0,3.86.44,5.64,1.32,1.78.88,3.23,2.28,4.34,4.2,1.11,1.92,1.67,4.45,1.67,7.6v1.82h-18.51c.09,2.52.81,4.45,2.15,5.78,1.34,1.33,3.07,1.99,5.21,1.99,1.43,0,2.66-.31,3.7-.93,1.03-.62,1.78-1.54,2.23-2.75l4.83,1.14c-.62,2.04-1.88,3.68-3.78,4.92-1.9,1.24-4.24,1.87-7.02,1.87ZM570.85,65.38h13.4c-.19-2.06-.83-3.71-1.93-4.97-1.1-1.26-2.63-1.89-4.61-1.89s-3.67.67-4.86,2.02c-1.19,1.35-1.86,2.96-2,4.84Z"></path>
  <path class="cls-1" d="M600.57,65.25v15.45h-5.13v-26.09h4.9l.02,5.02c.81-1.83,1.9-3.18,3.26-4.05,1.36-.86,2.96-1.3,4.8-1.3,2.66,0,4.81.84,6.43,2.51,1.63,1.67,2.44,4.12,2.44,7.34v16.57h-5.13v-15.94c0-1.88-.49-3.35-1.47-4.41-.98-1.06-2.33-1.59-4.04-1.59s-3.19.56-4.34,1.69c-1.15,1.13-1.73,2.73-1.73,4.8Z"></path>
  <path class="cls-1" d="M635.83,54.6v4.18h-5.21v14.86c0,1.04.22,1.81.66,2.3.44.49,1.17.73,2.18.73.28,0,.63-.03,1.06-.09s.8-.13,1.11-.19l.91,4.11c-.55.19-1.13.32-1.76.41-.63.09-1.24.13-1.83.13-2.36,0-4.2-.61-5.51-1.83-1.31-1.22-1.96-2.94-1.96-5.14v-15.29h-3.8v-4.18h3.8v-6.21h5.13v6.21h5.21Z"></path>
  <path class="cls-1" d="M641.41,80.69v-26.09h4.97v4.2h.28c.46-1.41,1.3-2.53,2.51-3.35,1.21-.82,2.57-1.22,4.1-1.22.33,0,.71.01,1.13.04.43.03.77.06,1.04.09v4.9c-.19-.05-.55-.11-1.07-.18-.53-.07-1.07-.11-1.61-.11-1.79,0-3.27.55-4.45,1.65-1.18,1.1-1.76,2.5-1.76,4.21v15.84h-5.13Z"></path>
  <path class="cls-1" d="M670.71,81.23c-2.57,0-4.78-.55-6.65-1.66-1.87-1.11-3.3-2.66-4.31-4.67-1-2-1.5-4.36-1.5-7.07s.49-5.03,1.48-7.07c.99-2.04,2.38-3.63,4.19-4.77,1.8-1.14,3.92-1.72,6.35-1.72,1.98,0,3.86.44,5.64,1.32,1.78.88,3.23,2.28,4.34,4.2,1.11,1.92,1.67,4.45,1.67,7.6v1.82h-18.51c.09,2.52.81,4.45,2.15,5.78,1.34,1.33,3.07,1.99,5.21,1.99,1.43,0,2.66-.31,3.7-.93,1.03-.62,1.78-1.54,2.23-2.75l4.83,1.14c-.62,2.04-1.88,3.68-3.78,4.92-1.9,1.24-4.24,1.87-7.02,1.87ZM663.43,65.38h13.4c-.19-2.06-.83-3.71-1.93-4.97-1.1-1.26-2.63-1.89-4.61-1.89s-3.67.67-4.86,2.02c-1.19,1.35-1.86,2.96-2,4.84Z"></path>
  <path class="cls-1" d="M327.22,108.37v4.18h-5.84v21.91h-5.13v-21.91h-4.94v-4.18h4.94v-2.99c0-1.62.36-2.97,1.09-4.06.73-1.09,1.68-1.91,2.85-2.45,1.17-.54,2.46-.82,3.84-.82,1.03,0,1.91.08,2.65.24.74.17,1.29.32,1.64.46l-1.19,4.15c-.25-.06-.56-.14-.93-.23-.37-.09-.82-.14-1.35-.14-1.23,0-2.11.31-2.65.91-.54.61-.81,1.49-.81,2.64v2.29h5.84Z"></path>
  <path class="cls-1" d="M342.59,135c-2.45,0-4.58-.56-6.41-1.68-1.83-1.12-3.25-2.69-4.26-4.7-1.01-2.01-1.52-4.37-1.52-7.06s.51-5.08,1.52-7.11c1.01-2.03,2.43-3.61,4.26-4.72,1.83-1.12,3.96-1.68,6.41-1.68s4.6.56,6.43,1.68,3.25,2.7,4.26,4.72c1.01,2.03,1.52,4.4,1.52,7.11s-.51,5.04-1.52,7.06c-1.01,2.01-2.43,3.58-4.26,4.7s-3.97,1.68-6.43,1.68ZM342.59,130.66c1.59,0,2.9-.41,3.93-1.25,1.03-.83,1.8-1.94,2.31-3.31s.76-2.89.76-4.54-.25-3.19-.76-4.59c-.51-1.39-1.28-2.5-2.31-3.34-1.03-.83-2.34-1.25-3.93-1.25s-2.87.42-3.9,1.25c-1.02.83-1.79,1.95-2.3,3.34-.51,1.39-.76,2.92-.76,4.59s.25,3.16.76,4.54,1.27,2.48,2.3,3.31c1.03.83,2.33,1.25,3.9,1.25Z"></path>
  <path class="cls-1" d="M360.96,134.46v-26.09h4.97v4.2h.28c.46-1.41,1.3-2.53,2.51-3.35,1.21-.82,2.57-1.22,4.1-1.22.33,0,.71.01,1.13.04.43.03.77.06,1.04.09v4.9c-.19-.05-.55-.11-1.07-.18-.53-.07-1.07-.11-1.61-.11-1.79,0-3.27.55-4.45,1.65-1.18,1.1-1.76,2.5-1.76,4.21v15.84h-5.13Z"></path>
  <path class="cls-1" d="M407.99,134.93c-3.02,0-5.71-.72-8.06-2.15-2.36-1.43-4.21-3.48-5.57-6.14-1.35-2.66-2.03-5.84-2.03-9.55s.68-6.91,2.04-9.58c1.36-2.67,3.22-4.72,5.58-6.15,2.36-1.43,5.04-2.15,8.04-2.15,2.44,0,4.67.46,6.7,1.39,2.02.93,3.7,2.26,5.04,4.01,1.34,1.75,2.2,3.86,2.59,6.31h-5.34c-.43-2.21-1.49-3.91-3.16-5.09-1.67-1.18-3.6-1.77-5.78-1.77-1.99,0-3.77.5-5.34,1.5-1.57,1-2.81,2.48-3.72,4.41-.91,1.94-1.36,4.31-1.36,7.1s.45,5.19,1.36,7.12c.91,1.93,2.15,3.39,3.72,4.37,1.57.99,3.35,1.48,5.34,1.48,2.18,0,4.1-.59,5.78-1.78,1.67-1.19,2.73-2.89,3.16-5.1h5.37c-.36,2.3-1.19,4.33-2.49,6.09-1.3,1.76-2.96,3.14-5,4.14-2.03,1-4.32,1.51-6.87,1.51Z"></path>
  <path class="cls-1" d="M433.81,99.69v34.77h-5.13v-34.77h5.13Z"></path>
  <path class="cls-1" d="M443.78,104.38c-.89,0-1.64-.3-2.28-.89-.63-.59-.94-1.31-.94-2.15s.32-1.58.94-2.17c.63-.59,1.39-.89,2.28-.89s1.65.3,2.29.89c.64.59.96,1.31.96,2.17s-.32,1.56-.96,2.15c-.64.59-1.4.89-2.29.89ZM441.19,134.46v-26.09h5.13v26.09h-5.13Z"></path>
  <path class="cls-1" d="M453.71,134.46v-26.09h4.88l.12,4.88c.67-1.8,1.67-3.14,3.01-4.02,1.34-.87,2.78-1.31,4.34-1.31,1.7,0,3.1.48,4.22,1.45,1.12.96,1.94,2.31,2.45,4.04.65-1.76,1.73-3.11,3.23-4.06,1.5-.95,3.18-1.42,5.03-1.42,1.54,0,2.93.34,4.17,1s2.24,1.67,2.98,2.99,1.11,2.97,1.11,4.95v17.59h-5.16v-17.08c0-1.74-.48-3-1.45-3.78-.96-.78-2.11-1.17-3.43-1.17-1.62,0-2.89.5-3.82,1.49-.93,1-1.39,2.27-1.39,3.83v16.71h-5.06v-17.41c0-1.4-.45-2.52-1.34-3.36-.9-.84-2.03-1.26-3.42-1.26s-2.68.5-3.74,1.48c-1.07.99-1.6,2.43-1.6,4.33v16.22h-5.13Z"></path>
  <path class="cls-1" d="M503.95,135.04c-1.67,0-3.16-.31-4.49-.92-1.33-.61-2.38-1.51-3.16-2.7-.78-1.18-1.17-2.63-1.17-4.34,0-1.48.29-2.7.86-3.65.57-.96,1.34-1.71,2.31-2.27.96-.55,2.04-.97,3.23-1.25s2.4-.49,3.63-.63c2.3-.26,3.97-.49,5.02-.69,1.04-.19,1.56-.75,1.56-1.67v-.14c0-1.45-.42-2.57-1.27-3.37-.85-.8-2.09-1.2-3.72-1.2s-3.06.37-4.04,1.12c-.98.75-1.65,1.57-2.01,2.45l-4.83-1.26c.59-1.55,1.44-2.81,2.54-3.75,1.11-.95,2.37-1.64,3.79-2.08,1.42-.43,2.91-.65,4.47-.65,1.04,0,2.16.13,3.34.38,1.18.25,2.3.7,3.34,1.34,1.04.65,1.89,1.57,2.54,2.77.65,1.2.98,2.74.98,4.62v17.32h-4.97v-3.57h-.26c-.51,1.03-1.4,1.98-2.65,2.85-1.25.87-2.94,1.31-5.05,1.31ZM505.09,130.91c1.39,0,2.58-.27,3.57-.83,1-.55,1.76-1.27,2.3-2.16.54-.89.8-1.84.8-2.87v-3.34c-.25.25-.78.46-1.6.64-.82.18-1.68.33-2.58.45-.9.13-1.62.22-2.15.28-1.45.2-2.69.59-3.72,1.18s-1.55,1.55-1.55,2.88c0,1.24.46,2.18,1.39,2.81.93.63,2.1.95,3.53.95Z"></path>
  <path class="cls-1" d="M535.42,108.37v4.18h-5.21v14.86c0,1.04.22,1.81.66,2.3.44.49,1.17.73,2.18.73.28,0,.63-.03,1.06-.09s.8-.13,1.11-.19l.91,4.11c-.55.19-1.13.32-1.76.41-.63.09-1.24.13-1.83.13-2.36,0-4.2-.61-5.51-1.83-1.31-1.22-1.96-2.94-1.96-5.14v-15.29h-3.8v-4.18h3.8v-6.21h5.13v6.21h5.21Z"></path>
  <path class="cls-1" d="M551.79,135c-2.57,0-4.78-.55-6.65-1.66-1.87-1.11-3.3-2.66-4.31-4.67-1-2-1.5-4.36-1.5-7.07s.49-5.03,1.48-7.07c.99-2.04,2.38-3.63,4.19-4.77,1.8-1.14,3.92-1.72,6.35-1.72,1.98,0,3.86.44,5.64,1.32,1.78.88,3.23,2.28,4.34,4.2,1.11,1.92,1.67,4.45,1.67,7.6v1.82h-18.51c.09,2.52.81,4.45,2.15,5.78,1.34,1.33,3.07,1.99,5.21,1.99,1.43,0,2.66-.31,3.7-.93,1.03-.62,1.78-1.54,2.23-2.75l4.83,1.14c-.62,2.04-1.88,3.68-3.78,4.92-1.9,1.24-4.24,1.87-7.02,1.87ZM544.51,119.15h13.4c-.19-2.06-.83-3.71-1.93-4.97-1.1-1.26-2.63-1.89-4.61-1.89s-3.67.67-4.86,2.02c-1.19,1.35-1.86,2.96-2,4.84Z"></path>
  <path class="cls-1" d="M582.71,134.46v-34.77h12.46c2.68,0,4.91.47,6.7,1.4,1.79.93,3.13,2.22,4.01,3.86.89,1.64,1.33,3.53,1.33,5.66,0,2.33-.53,4.35-1.59,6.06-1.06,1.7-2.65,2.95-4.76,3.74l7.65,14.05h-6.04l-7.05-13.14h-7.4v13.14h-5.32ZM588.03,116.77h6.58c2.55,0,4.39-.54,5.52-1.62,1.13-1.08,1.69-2.59,1.69-4.54s-.57-3.51-1.7-4.65c-1.14-1.15-2.99-1.72-5.56-1.72h-6.54v12.53Z"></path>
  <path class="cls-1" d="M624.35,135c-2.57,0-4.78-.55-6.65-1.66-1.87-1.11-3.3-2.66-4.31-4.67-1-2-1.5-4.36-1.5-7.07s.49-5.03,1.48-7.07c.99-2.04,2.38-3.63,4.19-4.77,1.8-1.14,3.92-1.72,6.35-1.72,1.98,0,3.86.44,5.64,1.32,1.78.88,3.23,2.28,4.34,4.2,1.11,1.92,1.67,4.45,1.67,7.6v1.82h-18.51c.09,2.52.81,4.45,2.15,5.78,1.34,1.33,3.07,1.99,5.21,1.99,1.43,0,2.66-.31,3.7-.93,1.03-.62,1.78-1.54,2.23-2.75l4.83,1.14c-.62,2.04-1.88,3.68-3.78,4.92-1.9,1.24-4.24,1.87-7.02,1.87ZM617.07,119.15h13.4c-.19-2.06-.83-3.71-1.93-4.97-1.1-1.26-2.63-1.89-4.61-1.89s-3.67.67-4.86,2.02c-1.19,1.35-1.86,2.96-2,4.84Z"></path>
  <path class="cls-1" d="M651.02,135c-2.83,0-5.18-.61-7.04-1.83-1.86-1.22-3.02-2.99-3.49-5.31l4.83-1c.7,2.66,2.61,3.99,5.74,3.99,1.66,0,2.98-.35,3.95-1.04.97-.69,1.46-1.52,1.46-2.49,0-1.65-1.22-2.74-3.66-3.29l-4.39-1c-4.79-1.07-7.19-3.48-7.19-7.21,0-1.56.43-2.92,1.29-4.08.86-1.17,2.06-2.08,3.57-2.72,1.52-.64,3.26-.97,5.24-.97,2.81,0,5.03.6,6.63,1.81,1.6,1.2,2.69,2.77,3.25,4.7l-4.6,1c-.33-.92-.9-1.72-1.7-2.41-.81-.69-1.98-1.04-3.52-1.04-1.42,0-2.6.32-3.55.96s-1.42,1.45-1.42,2.43c0,.87.32,1.57.95,2.11.63.54,1.66.97,3.09,1.3l4.2.93c4.74,1.08,7.12,3.43,7.12,7.05,0,1.59-.45,2.99-1.36,4.21-.91,1.22-2.18,2.18-3.79,2.87s-3.48,1.04-5.6,1.04Z"></path>
  <path class="cls-1" d="M679.12,135c-2.57,0-4.78-.55-6.65-1.66-1.87-1.11-3.3-2.66-4.31-4.67-1-2-1.5-4.36-1.5-7.07s.49-5.03,1.48-7.07c.99-2.04,2.38-3.63,4.19-4.77s3.92-1.72,6.35-1.72c1.98,0,3.86.44,5.64,1.32,1.78.88,3.23,2.28,4.34,4.2,1.11,1.92,1.67,4.45,1.67,7.6v1.82h-18.51c.09,2.52.81,4.45,2.15,5.78,1.34,1.33,3.07,1.99,5.21,1.99,1.43,0,2.66-.31,3.7-.93,1.03-.62,1.78-1.54,2.23-2.75l4.83,1.14c-.62,2.04-1.88,3.68-3.78,4.92-1.9,1.24-4.24,1.87-7.02,1.87ZM671.84,119.15h13.4c-.19-2.06-.83-3.71-1.93-4.97-1.1-1.26-2.63-1.89-4.61-1.89s-3.67.67-4.86,2.02c-1.19,1.35-1.86,2.96-2,4.84Z"></path>
  <path class="cls-1" d="M704.2,135.04c-1.67,0-3.16-.31-4.49-.92-1.33-.61-2.38-1.51-3.16-2.7-.78-1.18-1.17-2.63-1.17-4.34,0-1.48.29-2.7.86-3.65.57-.96,1.34-1.71,2.31-2.27.96-.55,2.04-.97,3.23-1.25,1.19-.28,2.4-.49,3.63-.63,2.3-.26,3.97-.49,5.02-.69,1.04-.19,1.56-.75,1.56-1.67v-.14c0-1.45-.42-2.57-1.27-3.37-.85-.8-2.09-1.2-3.72-1.2s-3.06.37-4.04,1.12c-.98.75-1.65,1.57-2.01,2.45l-4.83-1.26c.59-1.55,1.44-2.81,2.54-3.75,1.11-.95,2.37-1.64,3.79-2.08,1.42-.43,2.91-.65,4.47-.65,1.04,0,2.16.13,3.34.38,1.18.25,2.3.7,3.34,1.34,1.04.65,1.89,1.57,2.54,2.77.65,1.2.98,2.74.98,4.62v17.32h-4.97v-3.57h-.26c-.51,1.03-1.4,1.98-2.65,2.85-1.25.87-2.94,1.31-5.05,1.31ZM705.34,130.91c1.39,0,2.58-.27,3.57-.83,1-.55,1.76-1.27,2.3-2.16.54-.89.8-1.84.8-2.87v-3.34c-.25.25-.78.46-1.6.64-.82.18-1.68.33-2.58.45-.9.13-1.62.22-2.15.28-1.45.2-2.69.59-3.72,1.18s-1.55,1.55-1.55,2.88c0,1.24.46,2.18,1.39,2.81.93.63,2.1.95,3.53.95Z"></path>
  <path class="cls-1" d="M724.51,134.46v-26.09h4.97v4.2h.28c.46-1.41,1.3-2.53,2.51-3.35,1.21-.82,2.57-1.22,4.1-1.22.33,0,.71.01,1.13.04.43.03.77.06,1.04.09v4.9c-.19-.05-.55-.11-1.07-.18-.53-.07-1.07-.11-1.61-.11-1.79,0-3.27.55-4.45,1.65-1.18,1.1-1.76,2.5-1.76,4.21v15.84h-5.13Z"></path>
  <path class="cls-1" d="M753.53,135c-2.46,0-4.6-.56-6.42-1.68-1.82-1.12-3.24-2.69-4.25-4.7-1.01-2.01-1.52-4.37-1.52-7.06s.51-5.08,1.52-7.11c1.01-2.03,2.43-3.61,4.25-4.72,1.82-1.12,3.96-1.68,6.42-1.68,2.71,0,5.04.68,7.01,2.05,1.97,1.36,3.27,3.25,3.91,5.66l-4.88,1.17c-.36-1.35-1.05-2.45-2.09-3.28-1.03-.83-2.35-1.25-3.93-1.25s-2.87.41-3.91,1.24-1.8,1.93-2.31,3.33c-.51,1.39-.76,2.93-.76,4.61s.25,3.18.76,4.56c.51,1.38,1.28,2.48,2.31,3.3s2.34,1.23,3.91,1.23,2.96-.43,4.02-1.3c1.06-.86,1.76-2,2.1-3.42l4.86,1.17c-.64,2.46-1.95,4.39-3.92,5.79-1.98,1.4-4.33,2.1-7.07,2.1Z"></path>
  <path class="cls-1" d="M775.76,119.01v15.45h-5.13v-34.77h5.09v13.37c.82-1.73,1.9-2.99,3.22-3.81,1.32-.81,2.88-1.21,4.67-1.21,2.66,0,4.81.84,6.44,2.51,1.63,1.67,2.45,4.12,2.45,7.34v16.57h-5.16v-15.94c0-1.88-.49-3.35-1.47-4.41s-2.33-1.59-4.04-1.59-3.19.56-4.34,1.69c-1.15,1.13-1.73,2.73-1.73,4.8Z"></path>
  <path class="cls-1" d="M188.71,176.12c-.55,0-1.11-.21-1.53-.63-.85-.85-.85-2.22,0-3.07,9.37-9.38,15.55-19.48,17.88-29.2,2.21-9.23,1.76-16.45-1.35-21.47-2.58-4.17-7.06-6.93-13.67-8.45-1.17-.27-1.9-1.43-1.63-2.6.27-1.17,1.45-1.89,2.6-1.63,7.81,1.79,13.17,5.19,16.39,10.4,3.74,6.04,4.37,14.37,1.88,24.77-2.52,10.5-9.1,21.31-19.03,31.26-.42.42-.98.64-1.54.64Z"></path>
  <path class="cls-1" d="M178.92,111.18c-.16,0-.32-.02-.48-.05-7.83-1.74-13.21-5.1-16.44-10.27-3.78-6.05-4.41-14.46-1.88-24.99,4.61-19.22,22.46-38.63,48.98-53.24l9.83-5.01c9.27-4.36,19.19-8.08,29.54-11.08,1.17-.33,2.36.33,2.69,1.48.34,1.15-.33,2.36-1.48,2.69-10.14,2.93-19.84,6.57-28.84,10.81l-9.7,4.95c-25.38,13.99-42.46,32.39-46.79,50.42-2.24,9.36-1.79,16.65,1.34,21.68,2.62,4.19,6.97,6.84,13.7,8.34,1.17.26,1.91,1.42,1.65,2.59-.23,1.01-1.12,1.7-2.12,1.7Z"></path>
  <path class="cls-1" d="M216.61,176.12c-.26,0-.52-.05-.77-.14-1.12-.43-1.69-1.68-1.26-2.8,6.41-16.9,7.88-32.32,4.25-44.6-3.52-11.87-9.26-18.47-17.08-19.61-1.19-.17-2.01-1.27-1.84-2.46.17-1.19,1.25-2.02,2.46-1.83,9.64,1.4,16.57,9.03,20.61,22.67,3.91,13.19,2.4,29.57-4.35,47.37-.33.87-1.15,1.4-2.03,1.4Z"></path>
  <path class="cls-1" d="M167.32,115.31c-.1,0-.2,0-.3-.02-9.66-1.35-16.63-9.03-20.72-22.83-5.58-18.85.08-44.44,15.56-70.22l6.02-9.31c2.03-2.94,4.16-5.82,6.35-8.64.74-.94,2.1-1.12,3.05-.38.95.74,1.12,2.1.38,3.05-2.15,2.75-4.22,5.58-6.17,8.39l-5.94,9.19c-14.81,24.68-20.32,49.01-15.08,66.69,3.56,12.02,9.33,18.67,17.16,19.76,1.19.16,2.02,1.26,1.85,2.45-.15,1.09-1.08,1.87-2.15,1.87Z"></path>
  <path class="cls-1" d="M246.06,176.12h-.03c-1.2-.02-2.16-1-2.14-2.2.41-28.63-6.98-52.29-20.28-64.91-6.89-6.53-13.52-9.73-19.26-9.57-4.9.15-9.53,2.64-14.16,7.62-.82.88-2.19.92-3.07.11-.88-.82-.93-2.19-.11-3.07,5.46-5.87,11.09-8.81,17.2-9,7.06-.22,14.63,3.4,22.39,10.76,14.18,13.45,22.06,38.28,21.64,68.12-.02,1.19-.99,2.14-2.17,2.14Z"></path>
  <path class="cls-1" d="M164.71,125.11c-6.93,0-14.3-3.66-21.91-10.88-14.25-13.52-22.13-38.5-21.63-68.52l.55-11.14c.79-9.67,2.37-19.55,4.71-29.45.28-1.17,1.46-1.88,2.61-1.61,1.17.28,1.89,1.45,1.61,2.61-2.29,9.69-3.84,19.36-4.61,28.74l-.54,11c-.48,28.74,6.92,52.54,20.28,65.23,6.98,6.63,13.47,9.88,19.45,9.68,4.93-.17,9.4-2.61,14.06-7.69.81-.89,2.18-.94,3.07-.13.88.81.94,2.18.13,3.07-5.42,5.91-11.02,8.88-17.11,9.09-.22,0-.45.01-.67.01Z"></path>
  <path class="cls-1" d="M249.08,108.68c-.56,0-1.12-.22-1.54-.64-9.52-9.63-19.77-15.97-29.66-18.35-12.04-2.88-20.63-1.21-25.52,4.98-.75.94-2.11,1.1-3.05.36-.94-.74-1.1-2.11-.36-3.05,6.03-7.64,16.11-9.84,29.94-6.51,10.68,2.56,21.65,9.31,31.73,19.51.84.85.84,2.23-.02,3.07-.42.42-.98.63-1.53.63Z"></path>
  <path class="cls-1" d="M162,135.99c-3.52,0-7.4-.51-11.64-1.53-18.93-4.54-38.11-22-52.64-47.89l-5.13-9.89c-7.64-15.98-13.25-33.59-16.7-52.42-1.09-5.99-1.89-12.21-2.38-18.48-.09-1.2.8-2.24,2-2.33,1.17-.1,2.24.8,2.33,2,.47,6.12,1.25,12.18,2.32,18.03,3.38,18.45,8.86,35.69,16.31,51.26l5.07,9.76c13.91,24.78,32.08,41.48,49.83,45.74,12.2,2.92,20.83,1.25,25.69-4.98.74-.94,2.11-1.11,3.05-.38.95.74,1.12,2.1.38,3.05-4.18,5.36-10.38,8.05-18.49,8.05Z"></path>
  <path class="cls-1" d="M182.78,106.6c-.93,0-1.79-.6-2.07-1.53-2.35-7.66-2.09-14,.81-19.39,3.36-6.26,10.26-10.97,20.51-14.01,13.32-3.95,29.86-2.38,47.84,4.53,1.12.43,1.68,1.69,1.25,2.81-.43,1.12-1.68,1.68-2.81,1.25-17.08-6.56-32.66-8.09-45.05-4.42-9.1,2.7-15.13,6.7-17.92,11.9-2.32,4.32-2.48,9.57-.48,16.06.35,1.15-.29,2.36-1.44,2.71-.21.07-.43.1-.64.1Z"></path>
  <path class="cls-1" d="M151.97,150.52c-16.07,0-34.91-5.89-53.86-17.1l-9.42-6c-14.7-10.05-28.44-22.55-40.9-37.21C28.87,67.96,14.56,39.69,5.25,6.2c-.32-1.15.36-2.35,1.51-2.67,1.14-.32,2.35.35,2.67,1.51,9.14,32.88,23.16,60.6,41.66,82.37,12.21,14.36,25.66,26.61,39.98,36.39l9.3,5.92c24.34,14.39,48.34,19.7,65.77,14.54,9.22-2.73,15.31-6.77,18.09-11.99,2.32-4.35,2.45-9.44.39-16-.36-1.14.28-2.36,1.42-2.72,1.14-.36,2.36.28,2.72,1.42,2.39,7.64,2.16,13.96-.7,19.34-3.35,6.29-10.31,11.04-20.69,14.11-4.74,1.41-9.92,2.1-15.42,2.1Z"></path>
  <path class="cls-1" d="M173.28,98.67c-.86,0-1.68-.52-2.02-1.37-3.61-9.04-.47-18.86,9.33-29.19,13.52-14.25,38.61-22.12,68.52-21.63,1.2.02,2.16,1.01,2.14,2.21-.02,1.2-1.1,2.08-2.21,2.14-28.84-.45-52.62,6.91-65.3,20.28-8.53,8.99-11.37,17.26-8.45,24.59.44,1.11-.1,2.38-1.21,2.82-.26.11-.54.16-.81.16Z"></path>
  <path class="cls-1" d="M122.89,173.65c-.3,0-.6,0-.9,0l-11.14-.44c-18-1.29-36.41-5.27-54.81-11.83-16.97-6.05-33.78-15.11-49.98-26.92-.97-.71-1.18-2.06-.48-3.03.7-.97,2.06-1.18,3.03-.48,15.87,11.56,32.31,20.42,48.89,26.34,18.02,6.43,36.05,10.33,53.59,11.59l10.99.43c27.97.12,51.09-7.24,63.48-20.3,8.63-9.09,11.5-17.41,8.54-24.74-.45-1.11.09-2.38,1.2-2.83,1.11-.45,2.38.09,2.83,1.2,3.66,9.04.49,18.92-9.41,29.35-13.08,13.78-37.04,21.66-65.83,21.66Z"></path>
</svg>
